<svg xmlns="http://www.w3.org/2000/svg" xmlns:xlink="http://www.w3.org/1999/xlink" width="500" zoomAndPan="magnify" viewBox="0 0 375 374.999991" height="500" preserveAspectRatio="xMidYMid meet" version="1.0"><defs><g/><clipPath id="9b5668a3aa"><path d="M 76 0.320312 L 128 0.320312 L 128 81 L 76 81 Z M 76 0.320312 " clip-rule="nonzero"/></clipPath><clipPath id="b3638cd1e1"><rect x="0" width="129" y="0" height="109"/></clipPath><clipPath id="559c7fe056"><rect x="0" width="33" y="0" height="16"/></clipPath><clipPath id="b39f21c331"><path d="M 280 251 L 313.601562 251 L 313.601562 267 L 280 267 Z M 280 251 " clip-rule="nonzero"/></clipPath><clipPath id="410072850d"><rect x="0" width="34" y="0" height="16"/></clipPath><clipPath id="25a52c4428"><path d="M 0.398438 0 L 192 0 L 192 268 L 0.398438 268 Z M 0.398438 0 " clip-rule="nonzero"/></clipPath><clipPath id="180d7931db"><path d="M 0.398438 87 L 147 87 L 147 202 L 0.398438 202 Z M 0.398438 87 " clip-rule="nonzero"/></clipPath><clipPath id="24dfcb6f25"><rect x="0" width="192" y="0" height="268"/></clipPath><clipPath id="d20380ba72"><rect x="0" width="123" y="0" height="17"/></clipPath><clipPath id="367253afb0"><path d="M 141 285 L 189 285 L 189 298.320312 L 141 298.320312 Z M 141 285 " clip-rule="nonzero"/></clipPath><clipPath id="676cc3a78d"><rect x="0" width="48" y="0" height="14"/></clipPath><clipPath id="97a6a51c25"><rect x="0" width="314" y="0" height="299"/></clipPath></defs><rect x="-37.5" width="450" fill="#ffffff" y="-37.499999" height="449.999989" fill-opacity="1"/><rect x="-37.5" width="450" fill="#848484" y="-37.499999" height="449.999989" fill-opacity="1"/><g transform="matrix(1, 0, 0, 1, 32, 0)"><g clip-path="url(#97a6a51c25)"><g transform="matrix(1, 0, 0, 1, 145, 166)"><g clip-path="url(#b3638cd1e1)"><g fill="#faf0d7" fill-opacity="1"><g transform="translate(0.271904, 79.1732)"><g><path d="M 3.859375 -0.625 C 6.429688 -1.03125 8.066406 -2.660156 8.765625 -5.515625 C 9.460938 -8.378906 9.8125 -12.4375 9.8125 -17.6875 C 9.8125 -24.6875 9.8125 -31.660156 9.8125 -38.609375 C 9.8125 -45.566406 9.8125 -52.546875 9.8125 -59.546875 C 9.8125 -64.796875 9.460938 -68.863281 8.765625 -71.75 C 8.066406 -74.632812 6.429688 -76.253906 3.859375 -76.609375 L 3.859375 -77.234375 L 18.234375 -77.234375 L 40.9375 -22.328125 L 60.46875 -77.234375 L 75.84375 -77.234375 L 75.84375 -76.609375 C 73.269531 -76.253906 71.632812 -74.632812 70.9375 -71.75 C 70.238281 -68.863281 69.890625 -64.796875 69.890625 -59.546875 C 69.890625 -52.546875 69.890625 -45.566406 69.890625 -38.609375 C 69.890625 -31.660156 69.890625 -24.6875 69.890625 -17.6875 C 69.890625 -12.4375 70.238281 -8.378906 70.9375 -5.515625 C 71.632812 -2.660156 73.269531 -1.03125 75.84375 -0.625 L 75.84375 0 L 54.53125 0 L 54.53125 -0.625 C 57.101562 -1.03125 58.734375 -2.660156 59.421875 -5.515625 C 60.117188 -8.378906 60.46875 -12.4375 60.46875 -17.6875 C 60.46875 -26.488281 60.46875 -35.28125 60.46875 -44.0625 C 60.46875 -52.84375 60.46875 -61.632812 60.46875 -70.4375 L 37.84375 -7.71875 L 37.234375 -7.71875 L 12.59375 -67.265625 C 12.59375 -64.335938 12.578125 -61.929688 12.546875 -60.046875 C 12.523438 -58.171875 12.5 -56.625 12.46875 -55.40625 C 12.445312 -54.195312 12.421875 -53.101562 12.390625 -52.125 C 12.367188 -51.15625 12.34375 -50.128906 12.3125 -49.046875 C 12.289062 -47.960938 12.265625 -46.597656 12.234375 -44.953125 C 12.210938 -43.304688 12.203125 -41.191406 12.203125 -38.609375 C 12.203125 -36.035156 12.203125 -34.117188 12.203125 -32.859375 C 12.203125 -31.597656 12.203125 -30.707031 12.203125 -30.1875 C 12.203125 -29.675781 12.210938 -29.265625 12.234375 -28.953125 C 12.265625 -28.648438 12.28125 -28.175781 12.28125 -27.53125 C 12.28125 -26.882812 12.28125 -25.816406 12.28125 -24.328125 C 12.28125 -22.835938 12.28125 -20.625 12.28125 -17.6875 C 12.28125 -12.4375 12.625 -8.378906 13.3125 -5.515625 C 14.007812 -2.660156 15.648438 -1.03125 18.234375 -0.625 L 18.234375 0 L 3.859375 0 Z M 3.859375 -0.625 "/></g></g></g><g clip-path="url(#9b5668a3aa)"><g fill="#faf0d7" fill-opacity="1"><g transform="translate(70.092704, 79.1732)"><g><path d="M 38.921875 1.546875 C 34.335938 1.546875 30.0625 0.59375 26.09375 -1.3125 C 22.132812 -3.21875 18.660156 -5.945312 15.671875 -9.5 C 12.691406 -13.050781 10.363281 -17.285156 8.6875 -22.203125 C 7.007812 -27.117188 6.171875 -32.585938 6.171875 -38.609375 C 6.171875 -44.640625 7.007812 -50.113281 8.6875 -55.03125 C 10.363281 -59.945312 12.707031 -64.179688 15.71875 -67.734375 C 18.726562 -71.285156 22.226562 -74.015625 26.21875 -75.921875 C 30.207031 -77.828125 34.492188 -78.78125 39.078125 -78.78125 C 42.222656 -78.78125 44.914062 -78.585938 47.15625 -78.203125 C 49.394531 -77.816406 51.347656 -77.328125 53.015625 -76.734375 C 54.691406 -76.140625 56.25 -75.507812 57.6875 -74.84375 L 57.6875 -59.234375 L 57.078125 -59.234375 C 57.078125 -59.234375 56.832031 -59.8125 56.34375 -60.96875 C 55.851562 -62.132812 55.101562 -63.578125 54.09375 -65.296875 C 53.09375 -67.023438 51.832031 -68.738281 50.3125 -70.4375 C 48.800781 -72.132812 47 -73.5625 44.90625 -74.71875 C 42.820312 -75.882812 40.441406 -76.46875 37.765625 -76.46875 C 34.984375 -76.46875 32.304688 -75.566406 29.734375 -73.765625 C 27.160156 -71.960938 24.851562 -69.382812 22.8125 -66.03125 C 20.78125 -62.6875 19.171875 -58.695312 17.984375 -54.0625 C 16.804688 -49.425781 16.21875 -44.273438 16.21875 -38.609375 C 16.21875 -32.953125 16.804688 -27.804688 17.984375 -23.171875 C 19.171875 -18.535156 20.78125 -14.539062 22.8125 -11.1875 C 24.851562 -7.84375 27.160156 -5.269531 29.734375 -3.46875 C 32.304688 -1.664062 34.984375 -0.765625 37.765625 -0.765625 C 40.441406 -0.765625 42.820312 -1.34375 44.90625 -2.5 C 47 -3.664062 48.800781 -5.109375 50.3125 -6.828125 C 51.832031 -8.554688 53.09375 -10.269531 54.09375 -11.96875 C 55.101562 -13.664062 55.851562 -15.09375 56.34375 -16.25 C 56.832031 -17.414062 57.078125 -18 57.078125 -18 L 57.6875 -18 L 57.6875 -2.390625 C 55.53125 -1.410156 53.035156 -0.507812 50.203125 0.3125 C 47.367188 1.132812 43.609375 1.546875 38.921875 1.546875 Z M 38.921875 1.546875 "/></g></g></g></g></g></g><g transform="matrix(1, 0, 0, 1, 15, 253)"><g clip-path="url(#559c7fe056)"><g fill="#faf0d7" fill-opacity="1"><g transform="translate(0.188101, 11.667609)"><g><path d="M 7.5625 -1.40625 L 7.5625 0 L 1.140625 0 L 1.140625 -8.890625 L 7.4375 -8.890625 L 7.4375 -7.5 L 2.921875 -7.5 L 2.921875 -5.15625 L 7.109375 -5.15625 L 7.109375 -3.75 L 2.921875 -3.75 L 2.921875 -1.40625 Z M 7.5625 -1.40625 "/></g></g></g><g fill="#faf0d7" fill-opacity="1"><g transform="translate(7.740532, 11.667609)"><g><path d="M 4.09375 -9.078125 C 5.113281 -9.078125 5.890625 -8.820312 6.421875 -8.3125 C 6.960938 -7.800781 7.285156 -7.125 7.390625 -6.28125 L 5.5625 -6.28125 C 5.507812 -6.738281 5.351562 -7.097656 5.09375 -7.359375 C 4.84375 -7.617188 4.488281 -7.75 4.03125 -7.75 C 3.664062 -7.75 3.363281 -7.65625 3.125 -7.46875 C 2.894531 -7.289062 2.78125 -7.03125 2.78125 -6.6875 C 2.78125 -6.3125 2.921875 -6.015625 3.203125 -5.796875 C 3.484375 -5.585938 3.972656 -5.398438 4.671875 -5.234375 C 5.648438 -5.003906 6.367188 -4.660156 6.828125 -4.203125 C 7.285156 -3.753906 7.515625 -3.171875 7.515625 -2.453125 C 7.515625 -1.640625 7.195312 -0.992188 6.5625 -0.515625 C 5.925781 -0.046875 5.148438 0.1875 4.234375 0.1875 C 3.148438 0.1875 2.285156 -0.0507812 1.640625 -0.53125 C 0.992188 -1.007812 0.628906 -1.707031 0.546875 -2.625 L 2.359375 -2.625 C 2.453125 -2.15625 2.664062 -1.789062 3 -1.53125 C 3.332031 -1.269531 3.734375 -1.140625 4.203125 -1.140625 C 4.617188 -1.140625 4.960938 -1.242188 5.234375 -1.453125 C 5.515625 -1.660156 5.65625 -1.929688 5.65625 -2.265625 C 5.65625 -2.640625 5.519531 -2.941406 5.25 -3.171875 C 4.976562 -3.410156 4.519531 -3.609375 3.875 -3.765625 C 2.882812 -4.003906 2.144531 -4.320312 1.65625 -4.71875 C 1.164062 -5.125 0.921875 -5.707031 0.921875 -6.46875 C 0.921875 -7.257812 1.226562 -7.890625 1.84375 -8.359375 C 2.457031 -8.835938 3.207031 -9.078125 4.09375 -9.078125 Z M 4.09375 -9.078125 "/></g></g></g><g fill="#faf0d7" fill-opacity="1"><g transform="translate(15.189856, 11.667609)"><g><path d="M 8.109375 -7.5 L 5.09375 -7.5 L 5.09375 0 L 3.3125 0 L 3.3125 -7.5 L 0.296875 -7.5 L 0.296875 -8.890625 L 8.109375 -8.890625 Z M 8.109375 -7.5 "/></g></g></g><g fill="#faf0d7" fill-opacity="1"><g transform="translate(22.832499, 11.667609)"><g><path d="M 5.34375 -8.84375 C 6.445312 -8.71875 7.332031 -8.296875 8 -7.578125 C 8.675781 -6.867188 9.015625 -5.863281 9.015625 -4.5625 C 9.015625 -3.257812 8.671875 -2.210938 7.984375 -1.421875 C 7.296875 -0.640625 6.410156 -0.179688 5.328125 -0.046875 C 5.023438 -0.015625 4.644531 0 4.1875 0 L 1.140625 0 L 1.140625 -8.890625 L 4.21875 -8.890625 C 4.664062 -8.890625 5.039062 -8.875 5.34375 -8.84375 Z M 4.921875 -1.4375 C 5.597656 -1.53125 6.132812 -1.847656 6.53125 -2.390625 C 6.925781 -2.929688 7.125 -3.644531 7.125 -4.53125 C 7.125 -5.394531 6.929688 -6.078125 6.546875 -6.578125 C 6.160156 -7.078125 5.632812 -7.367188 4.96875 -7.453125 C 4.695312 -7.484375 4.378906 -7.5 4.015625 -7.5 L 2.921875 -7.5 L 2.921875 -1.40625 L 3.984375 -1.40625 C 4.421875 -1.40625 4.734375 -1.414062 4.921875 -1.4375 Z M 4.921875 -1.4375 "/></g></g></g></g></g><g clip-path="url(#b39f21c331)"><g transform="matrix(1, 0, 0, 1, 280, 251)"><g clip-path="url(#410072850d)"><g fill="#faf0d7" fill-opacity="1"><g transform="translate(1.417908, 11.965227)"><g><path d="M 3.484375 -1.40625 L 7.25 -1.40625 L 7.25 0 L 0.765625 0 L 0.765625 -0.84375 L 3.75 -3.765625 C 4.375 -4.378906 4.804688 -4.867188 5.046875 -5.234375 C 5.296875 -5.609375 5.421875 -6.003906 5.421875 -6.421875 C 5.421875 -6.828125 5.304688 -7.148438 5.078125 -7.390625 C 4.859375 -7.640625 4.550781 -7.765625 4.15625 -7.765625 C 3.71875 -7.765625 3.382812 -7.628906 3.15625 -7.359375 C 2.925781 -7.085938 2.78125 -6.679688 2.71875 -6.140625 L 2.703125 -6 L 0.9375 -6 L 0.953125 -6.140625 C 1.046875 -7.085938 1.378906 -7.816406 1.953125 -8.328125 C 2.535156 -8.835938 3.320312 -9.09375 4.3125 -9.09375 C 5.269531 -9.09375 6.007812 -8.859375 6.53125 -8.390625 C 7.050781 -7.929688 7.3125 -7.304688 7.3125 -6.515625 C 7.3125 -5.972656 7.15625 -5.457031 6.84375 -4.96875 C 6.53125 -4.476562 5.957031 -3.828125 5.125 -3.015625 Z M 3.484375 -1.40625 "/></g></g></g><g fill="#faf0d7" fill-opacity="1"><g transform="translate(9.086327, 11.965227)"><g><path d="M 4.03125 -9.078125 C 6.332031 -9.078125 7.484375 -7.53125 7.484375 -4.4375 C 7.484375 -1.351562 6.332031 0.1875 4.03125 0.1875 C 1.71875 0.1875 0.5625 -1.351562 0.5625 -4.4375 C 0.5625 -7.53125 1.71875 -9.078125 4.03125 -9.078125 Z M 2.828125 -1.953125 C 3.085938 -1.410156 3.488281 -1.140625 4.03125 -1.140625 C 4.570312 -1.140625 4.96875 -1.410156 5.21875 -1.953125 C 5.476562 -2.492188 5.609375 -3.328125 5.609375 -4.453125 C 5.609375 -5.585938 5.476562 -6.421875 5.21875 -6.953125 C 4.96875 -7.484375 4.570312 -7.75 4.03125 -7.75 C 3.476562 -7.75 3.078125 -7.484375 2.828125 -6.953125 C 2.578125 -6.421875 2.453125 -5.585938 2.453125 -4.453125 C 2.453125 -3.328125 2.578125 -2.492188 2.828125 -1.953125 Z M 2.828125 -1.953125 "/></g></g></g><g fill="#faf0d7" fill-opacity="1"><g transform="translate(16.754747, 11.965227)"><g><path d="M 4.03125 -9.078125 C 6.332031 -9.078125 7.484375 -7.53125 7.484375 -4.4375 C 7.484375 -1.351562 6.332031 0.1875 4.03125 0.1875 C 1.71875 0.1875 0.5625 -1.351562 0.5625 -4.4375 C 0.5625 -7.53125 1.71875 -9.078125 4.03125 -9.078125 Z M 2.828125 -1.953125 C 3.085938 -1.410156 3.488281 -1.140625 4.03125 -1.140625 C 4.570312 -1.140625 4.96875 -1.410156 5.21875 -1.953125 C 5.476562 -2.492188 5.609375 -3.328125 5.609375 -4.453125 C 5.609375 -5.585938 5.476562 -6.421875 5.21875 -6.953125 C 4.96875 -7.484375 4.570312 -7.75 4.03125 -7.75 C 3.476562 -7.75 3.078125 -7.484375 2.828125 -6.953125 C 2.578125 -6.421875 2.453125 -5.585938 2.453125 -4.453125 C 2.453125 -3.328125 2.578125 -2.492188 2.828125 -1.953125 Z M 2.828125 -1.953125 "/></g></g></g><g fill="#faf0d7" fill-opacity="1"><g transform="translate(24.423166, 11.965227)"><g><path d="M 7.625 -2.09375 L 6.515625 -2.09375 L 6.515625 0 L 4.75 0 L 4.75 -2.09375 L 0.46875 -2.09375 L 0.46875 -3.0625 L 4.625 -8.890625 L 6.515625 -8.890625 L 6.515625 -3.5 L 7.625 -3.5 Z M 4.75 -3.5 L 4.75 -6.890625 C 4.550781 -6.546875 4.351562 -6.226562 4.15625 -5.9375 L 2.40625 -3.5 Z M 4.75 -3.5 "/></g></g></g></g></g></g><path stroke-linecap="butt" transform="matrix(0.78447, -0.000209677, 0.000209677, 0.78447, 60.909046, 260.814182)" fill="none" stroke-linejoin="miter" d="M 0.00128195 0.500783 L 268.818262 0.497942 " stroke="#faf0d7" stroke-width="1" stroke-opacity="1" stroke-miterlimit="4"/><g clip-path="url(#25a52c4428)"><g transform="matrix(1, 0, 0, 1, -0.000000000000007105, 0)"><g clip-path="url(#24dfcb6f25)"><g clip-path="url(#180d7931db)"><g fill="#faf0d7" fill-opacity="1"><g transform="translate(15.066702, 155.205533)"><g><path d="M 48.28125 46.203125 L 45.34375 45.25 C 46.800781 39.9375 49.125 35.207031 52.3125 31.0625 C 55.507812 26.925781 59.222656 23.335938 63.453125 20.296875 C 61.941406 18.210938 60.773438 15.859375 59.953125 13.234375 C 59.128906 10.609375 58.71875 7.710938 58.71875 4.546875 C 58.71875 0.378906 59.585938 -3.691406 61.328125 -7.671875 C 63.066406 -11.660156 65.390625 -15.519531 68.296875 -19.25 C 71.203125 -22.988281 74.378906 -26.53125 77.828125 -29.875 C 81.273438 -33.226562 84.722656 -36.34375 88.171875 -39.21875 C 91.617188 -42.101562 94.796875 -44.664062 97.703125 -46.90625 C 100.609375 -49.15625 102.929688 -51.035156 104.671875 -52.546875 C 106.410156 -54.066406 107.28125 -55.175781 107.28125 -55.875 C 107.28125 -56.3125 107.125 -56.78125 106.8125 -57.28125 C 106.5 -57.789062 105.769531 -58.046875 104.625 -58.046875 C 101.082031 -58.046875 96.859375 -57.222656 91.953125 -55.578125 C 87.054688 -53.941406 81.859375 -51.796875 76.359375 -49.140625 C 75.796875 -45.722656 74.53125 -42.082031 72.5625 -38.21875 C 70.601562 -34.363281 68.054688 -30.507812 64.921875 -26.65625 C 61.796875 -22.800781 58.238281 -19.148438 54.25 -15.703125 C 50.269531 -12.253906 45.988281 -9.171875 41.40625 -6.453125 C 36.820312 -3.734375 32.0625 -1.597656 27.125 -0.046875 C 22.195312 1.503906 17.234375 2.28125 12.234375 2.28125 C 9.765625 2.28125 8.53125 1.550781 8.53125 0.09375 C 8.53125 -1.363281 9.734375 -3.453125 12.140625 -6.171875 C 14.546875 -8.890625 17.800781 -11.953125 21.90625 -15.359375 C 26.019531 -18.773438 30.734375 -22.363281 36.046875 -26.125 C 41.359375 -29.894531 46.9375 -33.582031 52.78125 -37.1875 C 58.632812 -40.789062 64.472656 -44.109375 70.296875 -47.140625 C 71.046875 -48.785156 71.625 -50.332031 72.03125 -51.78125 C 72.445312 -53.238281 72.65625 -54.632812 72.65625 -55.96875 C 72.65625 -59.125 71.3125 -61.679688 68.625 -63.640625 C 65.9375 -65.609375 61.429688 -66.59375 55.109375 -66.59375 C 47.960938 -66.59375 41.050781 -65.753906 34.375 -64.078125 C 27.707031 -62.398438 21.546875 -60.1875 15.890625 -57.4375 C 10.234375 -54.6875 5.285156 -51.710938 1.046875 -48.515625 C -3.191406 -45.328125 -6.492188 -42.179688 -8.859375 -39.078125 C -11.234375 -35.984375 -12.421875 -33.265625 -12.421875 -30.921875 C -12.421875 -29.023438 -11.566406 -27.503906 -9.859375 -26.359375 C -8.148438 -25.222656 -5.429688 -24.65625 -1.703125 -24.65625 C 1.898438 -24.65625 5.929688 -25.335938 10.390625 -26.703125 C 14.847656 -28.066406 19.382812 -29.882812 24 -32.15625 C 28.613281 -34.4375 33.054688 -36.984375 37.328125 -39.796875 C 41.597656 -42.609375 45.40625 -45.515625 48.75 -48.515625 C 52.101562 -51.523438 54.664062 -54.421875 56.4375 -57.203125 L 57.390625 -56.53125 C 55.429688 -52.738281 52.789062 -49.164062 49.46875 -45.8125 C 46.144531 -42.46875 42.410156 -39.398438 38.265625 -36.609375 C 34.128906 -33.828125 29.785156 -31.441406 25.234375 -29.453125 C 20.679688 -27.460938 16.144531 -25.910156 11.625 -24.796875 C 7.101562 -23.691406 2.816406 -23.140625 -1.234375 -23.140625 C -5.660156 -23.140625 -8.914062 -23.832031 -11 -25.21875 C -13.09375 -26.613281 -14.140625 -28.453125 -14.140625 -30.734375 C -14.140625 -33.265625 -12.96875 -36.140625 -10.625 -39.359375 C -8.28125 -42.585938 -4.957031 -45.863281 -0.65625 -49.1875 C 3.632812 -52.507812 8.703125 -55.5625 14.546875 -58.34375 C 20.398438 -61.125 26.851562 -63.367188 33.90625 -65.078125 C 40.957031 -66.785156 48.40625 -67.640625 56.25 -67.640625 C 63.519531 -67.640625 68.734375 -66.226562 71.890625 -63.40625 C 75.054688 -60.59375 76.640625 -57.003906 76.640625 -52.640625 C 76.640625 -52.265625 76.625 -51.867188 76.59375 -51.453125 C 76.5625 -51.046875 76.515625 -50.65625 76.453125 -50.28125 C 82.085938 -52.9375 87.382812 -55.082031 92.34375 -56.71875 C 97.3125 -58.363281 101.535156 -59.1875 105.015625 -59.1875 C 106.398438 -59.1875 107.328125 -58.835938 107.796875 -58.140625 C 108.273438 -57.453125 108.515625 -56.726562 108.515625 -55.96875 C 108.515625 -54.382812 107.660156 -52.375 105.953125 -49.9375 C 104.242188 -47.507812 101.96875 -44.773438 99.125 -41.734375 C 96.28125 -38.703125 93.179688 -35.492188 89.828125 -32.109375 C 86.472656 -28.722656 83.101562 -25.257812 79.71875 -21.71875 C 76.34375 -18.175781 73.226562 -14.679688 70.375 -11.234375 C 67.53125 -7.796875 65.253906 -4.492188 63.546875 -1.328125 C 61.847656 1.835938 61 4.75 61 7.40625 C 61 9.738281 61.296875 11.929688 61.890625 13.984375 C 62.492188 16.046875 63.332031 17.929688 64.40625 19.640625 C 68.832031 16.597656 73.578125 14.113281 78.640625 12.1875 C 83.703125 10.257812 88.789062 8.835938 93.90625 7.921875 C 99.03125 7.003906 103.867188 6.546875 108.421875 6.546875 C 112.785156 6.546875 116.675781 6.941406 120.09375 7.734375 C 123.507812 8.523438 126.210938 9.675781 128.203125 11.1875 C 130.191406 12.707031 131.1875 14.578125 131.1875 16.796875 C 131.1875 19.453125 130.253906 21.851562 128.390625 24 C 126.523438 26.144531 123.992188 28.007812 120.796875 29.59375 C 117.609375 31.175781 114.003906 32.378906 109.984375 33.203125 C 105.972656 34.023438 101.816406 34.4375 97.515625 34.4375 C 93.273438 34.4375 89.066406 33.992188 84.890625 33.109375 C 80.722656 32.222656 76.867188 30.8125 73.328125 28.875 C 69.785156 26.945312 66.78125 24.5 64.3125 21.53125 C 60.457031 24.5 57.085938 28.023438 54.203125 32.109375 C 51.328125 36.191406 49.351562 40.890625 48.28125 46.203125 Z M 12.328125 0.65625 C 14.671875 0.65625 17.453125 -0.0195312 20.671875 -1.375 C 23.898438 -2.738281 27.363281 -4.601562 31.0625 -6.96875 C 34.757812 -9.34375 38.519531 -12.0625 42.34375 -15.125 C 46.175781 -18.195312 49.847656 -21.472656 53.359375 -24.953125 C 56.867188 -28.429688 60.03125 -31.941406 62.84375 -35.484375 C 65.65625 -39.023438 67.914062 -42.4375 69.625 -45.71875 C 64 -42.75 58.335938 -39.476562 52.640625 -35.90625 C 46.953125 -32.332031 41.578125 -28.726562 36.515625 -25.09375 C 31.460938 -21.457031 26.957031 -18.007812 23 -14.75 C 19.050781 -11.488281 15.9375 -8.625 13.65625 -6.15625 C 11.382812 -3.695312 10.25 -1.863281 10.25 -0.65625 C 10.25 0.21875 10.941406 0.65625 12.328125 0.65625 Z M 96.953125 33.109375 C 101.117188 33.109375 105.175781 32.710938 109.125 31.921875 C 113.082031 31.128906 116.625 29.988281 119.75 28.5 C 122.882812 27.019531 125.367188 25.234375 127.203125 23.140625 C 129.035156 21.054688 129.953125 18.75 129.953125 16.21875 C 129.953125 14.445312 129.019531 12.925781 127.15625 11.65625 C 125.289062 10.394531 122.742188 9.414062 119.515625 8.71875 C 116.296875 8.03125 112.628906 7.6875 108.515625 7.6875 C 104.023438 7.6875 99.25 8.144531 94.1875 9.0625 C 89.132812 9.976562 84.109375 11.398438 79.109375 13.328125 C 74.117188 15.253906 69.503906 17.769531 65.265625 20.875 C 67.410156 23.71875 70.160156 26.039062 73.515625 27.84375 C 76.867188 29.644531 80.566406 30.972656 84.609375 31.828125 C 88.660156 32.679688 92.773438 33.109375 96.953125 33.109375 Z M 96.953125 33.109375 "/></g></g></g></g><g fill="#faf0d7" fill-opacity="1"><g transform="translate(101.184193, 155.205533)"><g><path d="M 0.5625 2.75 C -1.269531 2.75 -2.832031 2.351562 -4.125 1.5625 C -5.425781 0.769531 -6.078125 -0.507812 -6.078125 -2.28125 C -6.078125 -3.789062 -5.550781 -5.601562 -4.5 -7.71875 C -3.457031 -9.84375 -1.972656 -12.007812 -0.046875 -14.21875 C 1.878906 -16.4375 4.1875 -18.492188 6.875 -20.390625 C 9.5625 -22.285156 12.53125 -23.816406 15.78125 -24.984375 C 19.039062 -26.160156 22.507812 -26.75 26.1875 -26.75 C 27.894531 -26.75 28.75 -26.242188 28.75 -25.234375 C 28.75 -24.222656 27.84375 -22.925781 26.03125 -21.34375 C 24.226562 -19.757812 21.726562 -18.238281 18.53125 -16.78125 C 15.34375 -15.332031 11.632812 -14.289062 7.40625 -13.65625 C 4.875 -11.125 2.707031 -8.6875 0.90625 -6.34375 C -0.894531 -4.007812 -1.796875 -2.242188 -1.796875 -1.046875 C -1.796875 -0.0351562 -1.429688 0.65625 -0.703125 1.03125 C 0.015625 1.414062 0.910156 1.609375 1.984375 1.609375 C 3.503906 1.609375 5.195312 1.320312 7.0625 0.75 C 8.925781 0.1875 10.460938 -0.441406 11.671875 -1.140625 C 13.941406 -2.398438 16.785156 -4.179688 20.203125 -6.484375 C 23.617188 -8.796875 27.351562 -11.28125 31.40625 -13.9375 L 31.78125 -13.1875 C 27.914062 -10.65625 24.320312 -8.25 21 -5.96875 C 17.6875 -3.695312 14.703125 -1.832031 12.046875 -0.375 C 10.335938 0.507812 8.453125 1.25 6.390625 1.84375 C 4.335938 2.445312 2.394531 2.75 0.5625 2.75 Z M 8.15625 -14.421875 C 10.6875 -14.796875 13.117188 -15.441406 15.453125 -16.359375 C 17.796875 -17.273438 19.898438 -18.300781 21.765625 -19.4375 C 23.628906 -20.582031 25.097656 -21.660156 26.171875 -22.671875 C 27.253906 -23.679688 27.796875 -24.503906 27.796875 -25.140625 C 27.796875 -25.703125 27.257812 -25.984375 26.1875 -25.984375 C 24.851562 -25.984375 23.175781 -25.429688 21.15625 -24.328125 C 19.132812 -23.222656 17 -21.800781 14.75 -20.0625 C 12.507812 -18.320312 10.3125 -16.441406 8.15625 -14.421875 Z M 8.15625 -14.421875 "/></g></g></g><g fill="#faf0d7" fill-opacity="1"><g transform="translate(132.103028, 155.205533)"><g><path d="M -4.453125 2.09375 C -5.460938 2.09375 -6.300781 1.820312 -6.96875 1.28125 C -7.632812 0.738281 -7.96875 -0.191406 -7.96875 -1.515625 C -7.96875 -2.085938 -7.726562 -2.910156 -7.25 -3.984375 C -6.78125 -5.054688 -5.847656 -6.554688 -4.453125 -8.484375 C -3.066406 -10.421875 -1.03125 -12.921875 1.65625 -15.984375 C 4.34375 -19.046875 7.929688 -22.859375 12.421875 -27.421875 C 14.003906 -27.421875 15.601562 -27.484375 17.21875 -27.609375 C 18.832031 -27.734375 20.113281 -27.828125 21.0625 -27.890625 L 21.34375 -27.3125 C 20.144531 -26.425781 18.484375 -25.066406 16.359375 -23.234375 C 14.242188 -21.398438 11.984375 -19.34375 9.578125 -17.0625 C 7.171875 -14.789062 4.894531 -12.53125 2.75 -10.28125 C 0.601562 -8.039062 -1.160156 -6.082031 -2.546875 -4.40625 C -3.941406 -2.726562 -4.640625 -1.546875 -4.640625 -0.859375 C -4.640625 0.347656 -4.039062 0.953125 -2.84375 0.953125 C -1.769531 0.953125 -0.410156 0.539062 1.234375 -0.28125 C 2.878906 -1.101562 4.300781 -1.894531 5.5 -2.65625 C 6.632812 -3.351562 7.863281 -4.144531 9.1875 -5.03125 C 10.519531 -5.914062 11.945312 -6.863281 13.46875 -7.875 C 14.863281 -9.832031 16.921875 -12.375 19.640625 -15.5 C 22.359375 -18.632812 26.085938 -22.609375 30.828125 -27.421875 C 32.410156 -27.421875 34.003906 -27.484375 35.609375 -27.609375 C 37.222656 -27.734375 38.507812 -27.828125 39.46875 -27.890625 L 39.75 -27.3125 C 38.539062 -26.425781 36.878906 -25.066406 34.765625 -23.234375 C 32.648438 -21.398438 30.390625 -19.34375 27.984375 -17.0625 C 25.578125 -14.789062 23.296875 -12.53125 21.140625 -10.28125 C 18.992188 -8.039062 17.222656 -6.082031 15.828125 -4.40625 C 14.441406 -2.726562 13.75 -1.546875 13.75 -0.859375 C 13.75 0.347656 14.351562 0.953125 15.5625 0.953125 C 16.820312 0.953125 18.703125 0.160156 21.203125 -1.421875 C 23.703125 -3.003906 26.375 -4.960938 29.21875 -7.296875 C 29.03125 -7.617188 28.9375 -8 28.9375 -8.4375 C 28.9375 -9.195312 29.394531 -10.066406 30.3125 -11.046875 C 31.226562 -12.023438 32.363281 -12.894531 33.71875 -13.65625 C 35.082031 -14.414062 36.394531 -14.796875 37.65625 -14.796875 C 40.125 -17.203125 42.257812 -19.523438 44.0625 -21.765625 C 45.863281 -24.015625 46.890625 -25.800781 47.140625 -27.125 C 47.460938 -27.125 48.082031 -27.140625 49 -27.171875 C 49.914062 -27.203125 50.925781 -27.234375 52.03125 -27.265625 C 53.132812 -27.296875 54.144531 -27.359375 55.0625 -27.453125 C 55.976562 -27.554688 56.597656 -27.640625 56.921875 -27.703125 L 57.203125 -27.21875 C 56.191406 -26.78125 55.003906 -26.148438 53.640625 -25.328125 C 52.285156 -24.503906 51.195312 -23.742188 50.375 -23.046875 C 49.101562 -21.972656 47.472656 -20.550781 45.484375 -18.78125 C 43.492188 -17.007812 41.296875 -15.09375 38.890625 -13.03125 C 36.484375 -10.976562 34.019531 -8.972656 31.5 -7.015625 C 32.1875 -6.828125 33.003906 -6.734375 33.953125 -6.734375 C 35.535156 -6.734375 37.460938 -7.082031 39.734375 -7.78125 C 42.015625 -8.476562 44.515625 -9.710938 47.234375 -11.484375 L 50.9375 -13.9375 L 51.3125 -13.1875 L 47.8125 -10.8125 C 45.28125 -9.039062 42.75 -7.757812 40.21875 -6.96875 C 37.6875 -6.175781 35.503906 -5.78125 33.671875 -5.78125 C 32.535156 -5.78125 31.492188 -5.941406 30.546875 -6.265625 C 27.441406 -3.921875 24.421875 -1.941406 21.484375 -0.328125 C 18.546875 1.285156 16.03125 2.09375 13.9375 2.09375 C 12.925781 2.09375 12.085938 1.820312 11.421875 1.28125 C 10.765625 0.738281 10.4375 -0.191406 10.4375 -1.515625 C 10.4375 -1.960938 10.546875 -2.53125 10.765625 -3.21875 C 10.984375 -3.914062 11.441406 -4.832031 12.140625 -5.96875 L 5.78125 -1.796875 C 4.644531 -1.109375 3.066406 -0.289062 1.046875 0.65625 C -0.972656 1.613281 -2.804688 2.09375 -4.453125 2.09375 Z M -4.453125 2.09375 "/></g></g></g></g></g></g><g transform="matrix(1, 0, 0, 1, 103, 270)"><g clip-path="url(#d20380ba72)"><g fill="#faf0d7" fill-opacity="1"><g transform="translate(0.879266, 12.530938)"><g><path d="M 5.21875 -4.53125 L 8.796875 -4.53125 L 8.796875 0 L 7.375 0 L 7.25 -1.4375 L 6.859375 -0.546875 C 6.367188 -0.0546875 5.644531 0.1875 4.6875 0.1875 C 3.445312 0.1875 2.460938 -0.222656 1.734375 -1.046875 C 1.015625 -1.867188 0.65625 -2.984375 0.65625 -4.390625 C 0.65625 -5.816406 1.066406 -6.953125 1.890625 -7.796875 C 2.710938 -8.648438 3.765625 -9.078125 5.046875 -9.078125 C 6.203125 -9.078125 7.101562 -8.796875 7.75 -8.234375 C 8.40625 -7.671875 8.78125 -6.925781 8.875 -6 L 8.890625 -5.875 L 7.109375 -5.875 L 7.09375 -6 C 6.851562 -7.164062 6.160156 -7.75 5.015625 -7.75 C 4.285156 -7.75 3.691406 -7.457031 3.234375 -6.875 C 2.773438 -6.289062 2.546875 -5.5 2.546875 -4.5 C 2.546875 -3.425781 2.765625 -2.597656 3.203125 -2.015625 C 3.648438 -1.429688 4.238281 -1.140625 4.96875 -1.140625 C 5.539062 -1.140625 6.015625 -1.316406 6.390625 -1.671875 C 6.773438 -2.023438 7.015625 -2.515625 7.109375 -3.140625 L 5.21875 -3.140625 Z M 5.21875 -4.53125 "/></g></g></g><g fill="#faf0d7" fill-opacity="1"><g transform="translate(11.822665, 12.530938)"><g><path d="M 7.59375 -2.25 C 7.707031 -1.1875 7.921875 -0.4375 8.234375 0 L 6.296875 0 C 6.078125 -0.59375 5.929688 -1.253906 5.859375 -1.984375 C 5.734375 -2.992188 5.332031 -3.523438 4.65625 -3.578125 C 4.488281 -3.578125 4.253906 -3.578125 3.953125 -3.578125 L 2.921875 -3.578125 L 2.921875 0 L 1.140625 0 L 1.140625 -8.890625 L 4.390625 -8.890625 C 4.878906 -8.890625 5.3125 -8.867188 5.6875 -8.828125 C 6.382812 -8.742188 6.945312 -8.507812 7.375 -8.125 C 7.800781 -7.738281 8.015625 -7.1875 8.015625 -6.46875 C 8.015625 -5.914062 7.859375 -5.453125 7.546875 -5.078125 C 7.242188 -4.710938 6.820312 -4.457031 6.28125 -4.3125 C 7.039062 -4.007812 7.476562 -3.320312 7.59375 -2.25 Z M 2.921875 -4.90625 L 4.15625 -4.90625 C 4.5 -4.90625 4.738281 -4.910156 4.875 -4.921875 C 5.726562 -5.003906 6.15625 -5.429688 6.15625 -6.203125 C 6.15625 -6.609375 6.050781 -6.90625 5.84375 -7.09375 C 5.644531 -7.289062 5.351562 -7.414062 4.96875 -7.46875 C 4.769531 -7.488281 4.523438 -7.5 4.234375 -7.5 L 2.921875 -7.5 Z M 2.921875 -4.90625 "/></g></g></g><g fill="#faf0d7" fill-opacity="1"><g transform="translate(21.696312, 12.530938)"><g><path d="M 5.046875 -9.078125 C 6.410156 -9.078125 7.484375 -8.65625 8.265625 -7.8125 C 9.054688 -6.976562 9.453125 -5.859375 9.453125 -4.453125 C 9.453125 -3.046875 9.054688 -1.921875 8.265625 -1.078125 C 7.484375 -0.234375 6.410156 0.1875 5.046875 0.1875 C 3.691406 0.1875 2.617188 -0.234375 1.828125 -1.078125 C 1.046875 -1.921875 0.65625 -3.046875 0.65625 -4.453125 C 0.65625 -5.859375 1.046875 -6.976562 1.828125 -7.8125 C 2.609375 -8.65625 3.679688 -9.078125 5.046875 -9.078125 Z M 3.1875 -2.015625 C 3.632812 -1.429688 4.253906 -1.140625 5.046875 -1.140625 C 5.835938 -1.140625 6.457031 -1.429688 6.90625 -2.015625 C 7.351562 -2.609375 7.578125 -3.421875 7.578125 -4.453125 C 7.578125 -5.484375 7.351562 -6.289062 6.90625 -6.875 C 6.457031 -7.457031 5.835938 -7.75 5.046875 -7.75 C 4.253906 -7.75 3.632812 -7.457031 3.1875 -6.875 C 2.738281 -6.289062 2.515625 -5.476562 2.515625 -4.4375 C 2.515625 -3.40625 2.738281 -2.597656 3.1875 -2.015625 Z M 3.1875 -2.015625 "/></g></g></g><g fill="#faf0d7" fill-opacity="1"><g transform="translate(33.000584, 12.530938)"><g><path d="M 4.09375 -9.078125 C 5.113281 -9.078125 5.890625 -8.820312 6.421875 -8.3125 C 6.960938 -7.800781 7.285156 -7.125 7.390625 -6.28125 L 5.5625 -6.28125 C 5.507812 -6.738281 5.351562 -7.097656 5.09375 -7.359375 C 4.84375 -7.617188 4.488281 -7.75 4.03125 -7.75 C 3.664062 -7.75 3.363281 -7.65625 3.125 -7.46875 C 2.894531 -7.289062 2.78125 -7.03125 2.78125 -6.6875 C 2.78125 -6.3125 2.921875 -6.015625 3.203125 -5.796875 C 3.484375 -5.585938 3.972656 -5.398438 4.671875 -5.234375 C 5.648438 -5.003906 6.367188 -4.660156 6.828125 -4.203125 C 7.285156 -3.753906 7.515625 -3.171875 7.515625 -2.453125 C 7.515625 -1.640625 7.195312 -0.992188 6.5625 -0.515625 C 5.925781 -0.046875 5.148438 0.1875 4.234375 0.1875 C 3.148438 0.1875 2.285156 -0.0507812 1.640625 -0.53125 C 0.992188 -1.007812 0.628906 -1.707031 0.546875 -2.625 L 2.359375 -2.625 C 2.453125 -2.15625 2.664062 -1.789062 3 -1.53125 C 3.332031 -1.269531 3.734375 -1.140625 4.203125 -1.140625 C 4.617188 -1.140625 4.960938 -1.242188 5.234375 -1.453125 C 5.515625 -1.660156 5.65625 -1.929688 5.65625 -2.265625 C 5.65625 -2.640625 5.519531 -2.941406 5.25 -3.171875 C 4.976562 -3.410156 4.519531 -3.609375 3.875 -3.765625 C 2.882812 -4.003906 2.144531 -4.320312 1.65625 -4.71875 C 1.164062 -5.125 0.921875 -5.707031 0.921875 -6.46875 C 0.921875 -7.257812 1.226562 -7.890625 1.84375 -8.359375 C 2.457031 -8.835938 3.207031 -9.078125 4.09375 -9.078125 Z M 4.09375 -9.078125 "/></g></g></g><g fill="#faf0d7" fill-opacity="1"><g transform="translate(42.281367, 12.530938)"><g><path d="M 2.921875 0 L 1.140625 0 L 1.140625 -8.890625 L 2.921875 -8.890625 Z M 2.921875 0 "/></g></g></g><g fill="#faf0d7" fill-opacity="1"><g transform="translate(47.489369, 12.530938)"><g><path d="M 7.59375 -2.25 C 7.707031 -1.1875 7.921875 -0.4375 8.234375 0 L 6.296875 0 C 6.078125 -0.59375 5.929688 -1.253906 5.859375 -1.984375 C 5.734375 -2.992188 5.332031 -3.523438 4.65625 -3.578125 C 4.488281 -3.578125 4.253906 -3.578125 3.953125 -3.578125 L 2.921875 -3.578125 L 2.921875 0 L 1.140625 0 L 1.140625 -8.890625 L 4.390625 -8.890625 C 4.878906 -8.890625 5.3125 -8.867188 5.6875 -8.828125 C 6.382812 -8.742188 6.945312 -8.507812 7.375 -8.125 C 7.800781 -7.738281 8.015625 -7.1875 8.015625 -6.46875 C 8.015625 -5.914062 7.859375 -5.453125 7.546875 -5.078125 C 7.242188 -4.710938 6.820312 -4.457031 6.28125 -4.3125 C 7.039062 -4.007812 7.476562 -3.320312 7.59375 -2.25 Z M 2.921875 -4.90625 L 4.15625 -4.90625 C 4.5 -4.90625 4.738281 -4.910156 4.875 -4.921875 C 5.726562 -5.003906 6.15625 -5.429688 6.15625 -6.203125 C 6.15625 -6.609375 6.050781 -6.90625 5.84375 -7.09375 C 5.644531 -7.289062 5.351562 -7.414062 4.96875 -7.46875 C 4.769531 -7.488281 4.523438 -7.5 4.234375 -7.5 L 2.921875 -7.5 Z M 2.921875 -4.90625 "/></g></g></g><g fill="#faf0d7" fill-opacity="1"><g transform="translate(57.363015, 12.530938)"><g/></g></g><g fill="#faf0d7" fill-opacity="1"><g transform="translate(61.307933, 12.530938)"><g><path d="M 4.09375 -9.078125 C 5.113281 -9.078125 5.890625 -8.820312 6.421875 -8.3125 C 6.960938 -7.800781 7.285156 -7.125 7.390625 -6.28125 L 5.5625 -6.28125 C 5.507812 -6.738281 5.351562 -7.097656 5.09375 -7.359375 C 4.84375 -7.617188 4.488281 -7.75 4.03125 -7.75 C 3.664062 -7.75 3.363281 -7.65625 3.125 -7.46875 C 2.894531 -7.289062 2.78125 -7.03125 2.78125 -6.6875 C 2.78125 -6.3125 2.921875 -6.015625 3.203125 -5.796875 C 3.484375 -5.585938 3.972656 -5.398438 4.671875 -5.234375 C 5.648438 -5.003906 6.367188 -4.660156 6.828125 -4.203125 C 7.285156 -3.753906 7.515625 -3.171875 7.515625 -2.453125 C 7.515625 -1.640625 7.195312 -0.992188 6.5625 -0.515625 C 5.925781 -0.046875 5.148438 0.1875 4.234375 0.1875 C 3.148438 0.1875 2.285156 -0.0507812 1.640625 -0.53125 C 0.992188 -1.007812 0.628906 -1.707031 0.546875 -2.625 L 2.359375 -2.625 C 2.453125 -2.15625 2.664062 -1.789062 3 -1.53125 C 3.332031 -1.269531 3.734375 -1.140625 4.203125 -1.140625 C 4.617188 -1.140625 4.960938 -1.242188 5.234375 -1.453125 C 5.515625 -1.660156 5.65625 -1.929688 5.65625 -2.265625 C 5.65625 -2.640625 5.519531 -2.941406 5.25 -3.171875 C 4.976562 -3.410156 4.519531 -3.609375 3.875 -3.765625 C 2.882812 -4.003906 2.144531 -4.320312 1.65625 -4.71875 C 1.164062 -5.125 0.921875 -5.707031 0.921875 -6.46875 C 0.921875 -7.257812 1.226562 -7.890625 1.84375 -8.359375 C 2.457031 -8.835938 3.207031 -9.078125 4.09375 -9.078125 Z M 4.09375 -9.078125 "/></g></g></g><g fill="#faf0d7" fill-opacity="1"><g transform="translate(70.588716, 12.530938)"><g><path d="M 5.96875 -2.6875 L 2.984375 -2.6875 L 2.09375 0 L 0.1875 0 L 3.40625 -8.890625 L 5.640625 -8.890625 L 8.78125 0 L 6.84375 0 Z M 4.484375 -7.375 L 3.421875 -4.09375 L 5.515625 -4.09375 Z M 4.484375 -7.375 "/></g></g></g><g fill="#faf0d7" fill-opacity="1"><g transform="translate(80.74592, 12.530938)"><g><path d="M 8.953125 0 L 6.515625 0 L 2.859375 -6.75 C 2.898438 -5.945312 2.921875 -5.035156 2.921875 -4.015625 L 2.921875 0 L 1.140625 0 L 1.140625 -8.890625 L 3.5 -8.890625 L 7.25 -2.015625 C 7.207031 -2.804688 7.1875 -3.738281 7.1875 -4.8125 L 7.1875 -8.890625 L 8.953125 -8.890625 Z M 8.953125 0 "/></g></g></g><g fill="#faf0d7" fill-opacity="1"><g transform="translate(91.985757, 12.530938)"><g><path d="M 5.34375 -8.84375 C 6.445312 -8.71875 7.332031 -8.296875 8 -7.578125 C 8.675781 -6.867188 9.015625 -5.863281 9.015625 -4.5625 C 9.015625 -3.257812 8.671875 -2.210938 7.984375 -1.421875 C 7.296875 -0.640625 6.410156 -0.179688 5.328125 -0.046875 C 5.023438 -0.015625 4.644531 0 4.1875 0 L 1.140625 0 L 1.140625 -8.890625 L 4.21875 -8.890625 C 4.664062 -8.890625 5.039062 -8.875 5.34375 -8.84375 Z M 4.921875 -1.4375 C 5.597656 -1.53125 6.132812 -1.847656 6.53125 -2.390625 C 6.925781 -2.929688 7.125 -3.644531 7.125 -4.53125 C 7.125 -5.394531 6.929688 -6.078125 6.546875 -6.578125 C 6.160156 -7.078125 5.632812 -7.367188 4.96875 -7.453125 C 4.695312 -7.484375 4.378906 -7.5 4.015625 -7.5 L 2.921875 -7.5 L 2.921875 -1.40625 L 3.984375 -1.40625 C 4.421875 -1.40625 4.734375 -1.414062 4.921875 -1.4375 Z M 4.921875 -1.4375 "/></g></g></g><g fill="#faf0d7" fill-opacity="1"><g transform="translate(102.851826, 12.530938)"><g><path d="M 5.96875 -2.6875 L 2.984375 -2.6875 L 2.09375 0 L 0.1875 0 L 3.40625 -8.890625 L 5.640625 -8.890625 L 8.78125 0 L 6.84375 0 Z M 4.484375 -7.375 L 3.421875 -4.09375 L 5.515625 -4.09375 Z M 4.484375 -7.375 "/></g></g></g><g fill="#faf0d7" fill-opacity="1"><g transform="translate(113.009029, 12.530938)"><g><path d="M 7.5625 -1.484375 L 7.5625 0 L 1.140625 0 L 1.140625 -8.890625 L 2.921875 -8.890625 L 2.921875 -1.484375 Z M 7.5625 -1.484375 "/></g></g></g></g></g><g clip-path="url(#367253afb0)"><g transform="matrix(1, 0, 0, 1, 141, 285)"><g clip-path="url(#676cc3a78d)"><g fill="#faf0d7" fill-opacity="1"><g transform="translate(0.341769, 10.646046)"><g><path d="M 5.015625 -3.796875 C 5.921875 -3.566406 6.375 -3.003906 6.375 -2.109375 C 6.375 -1.492188 6.1875 -1.015625 5.8125 -0.671875 C 5.4375 -0.328125 4.984375 -0.117188 4.453125 -0.046875 C 4.210938 -0.015625 3.882812 0 3.46875 0 L 0.90625 0 L 0.90625 -7.046875 L 3.421875 -7.046875 C 3.796875 -7.046875 4.101562 -7.03125 4.34375 -7 C 4.90625 -6.925781 5.335938 -6.734375 5.640625 -6.421875 C 5.953125 -6.109375 6.109375 -5.71875 6.109375 -5.25 C 6.109375 -4.53125 5.742188 -4.046875 5.015625 -3.796875 Z M 2.3125 -5.9375 L 2.3125 -4.15625 L 3.375 -4.15625 C 3.539062 -4.15625 3.707031 -4.164062 3.875 -4.1875 C 4.382812 -4.269531 4.640625 -4.5625 4.640625 -5.0625 C 4.640625 -5.5625 4.375 -5.84375 3.84375 -5.90625 C 3.6875 -5.925781 3.519531 -5.9375 3.34375 -5.9375 Z M 4.015625 -1.125 C 4.265625 -1.144531 4.472656 -1.238281 4.640625 -1.40625 C 4.804688 -1.570312 4.890625 -1.800781 4.890625 -2.09375 C 4.890625 -2.6875 4.585938 -3.015625 3.984375 -3.078125 C 3.816406 -3.097656 3.648438 -3.109375 3.484375 -3.109375 L 2.3125 -3.109375 L 2.3125 -1.109375 L 3.546875 -1.109375 C 3.765625 -1.109375 3.921875 -1.113281 4.015625 -1.125 Z M 4.015625 -1.125 "/></g></g></g><g fill="#faf0d7" fill-opacity="1"><g transform="translate(9.162047, 10.646046)"><g><path d="M 4 -7.1875 C 5.070312 -7.1875 5.921875 -6.851562 6.546875 -6.1875 C 7.171875 -5.519531 7.484375 -4.628906 7.484375 -3.515625 C 7.484375 -2.410156 7.171875 -1.523438 6.546875 -0.859375 C 5.921875 -0.191406 5.070312 0.140625 4 0.140625 C 2.925781 0.140625 2.078125 -0.191406 1.453125 -0.859375 C 0.828125 -1.523438 0.515625 -2.410156 0.515625 -3.515625 C 0.515625 -4.628906 0.820312 -5.519531 1.4375 -6.1875 C 2.0625 -6.851562 2.914062 -7.1875 4 -7.1875 Z M 2.515625 -1.59375 C 2.878906 -1.132812 3.375 -0.90625 4 -0.90625 C 4.625 -0.90625 5.113281 -1.132812 5.46875 -1.59375 C 5.820312 -2.0625 6 -2.703125 6 -3.515625 C 6 -4.335938 5.820312 -4.976562 5.46875 -5.4375 C 5.113281 -5.894531 4.625 -6.125 4 -6.125 C 3.363281 -6.125 2.867188 -5.894531 2.515625 -5.4375 C 2.160156 -4.976562 1.984375 -4.335938 1.984375 -3.515625 C 1.984375 -2.691406 2.160156 -2.050781 2.515625 -1.59375 Z M 2.515625 -1.59375 "/></g></g></g><g fill="#faf0d7" fill-opacity="1"><g transform="translate(19.084872, 10.646046)"><g><path d="M 4.125 -3.59375 L 6.96875 -3.59375 L 6.96875 0 L 5.84375 0 L 5.75 -1.140625 L 5.421875 -0.421875 C 5.035156 -0.046875 4.46875 0.140625 3.71875 0.140625 C 2.738281 0.140625 1.957031 -0.179688 1.375 -0.828125 C 0.800781 -1.484375 0.515625 -2.367188 0.515625 -3.484375 C 0.515625 -4.609375 0.84375 -5.503906 1.5 -6.171875 C 2.15625 -6.847656 2.984375 -7.1875 3.984375 -7.1875 C 4.898438 -7.1875 5.617188 -6.960938 6.140625 -6.515625 C 6.660156 -6.066406 6.957031 -5.476562 7.03125 -4.75 L 7.046875 -4.65625 L 5.625 -4.65625 L 5.609375 -4.75 C 5.429688 -5.664062 4.882812 -6.125 3.96875 -6.125 C 3.394531 -6.125 2.925781 -5.894531 2.5625 -5.4375 C 2.195312 -4.976562 2.015625 -4.351562 2.015625 -3.5625 C 2.015625 -2.707031 2.191406 -2.050781 2.546875 -1.59375 C 2.898438 -1.132812 3.359375 -0.90625 3.921875 -0.90625 C 4.378906 -0.90625 4.757812 -1.046875 5.0625 -1.328125 C 5.363281 -1.609375 5.550781 -1.992188 5.625 -2.484375 L 4.125 -2.484375 Z M 4.125 -3.59375 "/></g></g></g><g fill="#faf0d7" fill-opacity="1"><g transform="translate(28.721845, 10.646046)"><g><path d="M 4 -7.1875 C 5.070312 -7.1875 5.921875 -6.851562 6.546875 -6.1875 C 7.171875 -5.519531 7.484375 -4.628906 7.484375 -3.515625 C 7.484375 -2.410156 7.171875 -1.523438 6.546875 -0.859375 C 5.921875 -0.191406 5.070312 0.140625 4 0.140625 C 2.925781 0.140625 2.078125 -0.191406 1.453125 -0.859375 C 0.828125 -1.523438 0.515625 -2.410156 0.515625 -3.515625 C 0.515625 -4.628906 0.820312 -5.519531 1.4375 -6.1875 C 2.0625 -6.851562 2.914062 -7.1875 4 -7.1875 Z M 2.515625 -1.59375 C 2.878906 -1.132812 3.375 -0.90625 4 -0.90625 C 4.625 -0.90625 5.113281 -1.132812 5.46875 -1.59375 C 5.820312 -2.0625 6 -2.703125 6 -3.515625 C 6 -4.335938 5.820312 -4.976562 5.46875 -5.4375 C 5.113281 -5.894531 4.625 -6.125 4 -6.125 C 3.363281 -6.125 2.867188 -5.894531 2.515625 -5.4375 C 2.160156 -4.976562 1.984375 -4.335938 1.984375 -3.515625 C 1.984375 -2.691406 2.160156 -2.050781 2.515625 -1.59375 Z M 2.515625 -1.59375 "/></g></g></g><g fill="#faf0d7" fill-opacity="1"><g transform="translate(38.64467, 10.646046)"><g><path d="M 6.015625 -1.78125 C 6.097656 -0.9375 6.265625 -0.34375 6.515625 0 L 4.984375 0 C 4.804688 -0.46875 4.6875 -0.992188 4.625 -1.578125 C 4.53125 -2.367188 4.21875 -2.785156 3.6875 -2.828125 C 3.550781 -2.835938 3.363281 -2.84375 3.125 -2.84375 L 2.3125 -2.84375 L 2.3125 0 L 0.90625 0 L 0.90625 -7.046875 L 3.484375 -7.046875 C 3.867188 -7.046875 4.207031 -7.023438 4.5 -6.984375 C 5.0625 -6.921875 5.507812 -6.738281 5.84375 -6.4375 C 6.175781 -6.132812 6.34375 -5.695312 6.34375 -5.125 C 6.34375 -4.675781 6.21875 -4.304688 5.96875 -4.015625 C 5.726562 -3.734375 5.394531 -3.53125 4.96875 -3.40625 C 5.570312 -3.175781 5.921875 -2.632812 6.015625 -1.78125 Z M 2.3125 -3.890625 L 3.28125 -3.890625 C 3.5625 -3.890625 3.753906 -3.890625 3.859375 -3.890625 C 4.523438 -3.953125 4.859375 -4.289062 4.859375 -4.90625 C 4.859375 -5.226562 4.78125 -5.460938 4.625 -5.609375 C 4.46875 -5.765625 4.238281 -5.863281 3.9375 -5.90625 C 3.769531 -5.925781 3.570312 -5.9375 3.34375 -5.9375 L 2.3125 -5.9375 Z M 2.3125 -3.890625 "/></g></g></g></g></g></g><path fill="#faf0d7" d="M 253.820312 192.457031 C 252.929688 193.042969 252.039062 193.625 251.144531 194.207031 C 250.171875 194.84375 249.195312 195.480469 248.222656 196.117188 L 246.804688 197.046875 L 246.789062 195.378906 C 246.777344 194.136719 246.753906 193.699219 246.699219 193.664062 C 246.660156 193.636719 246.460938 193.617188 246.261719 193.617188 C 245.839844 193.613281 245.882812 193.589844 243.824219 194.953125 C 242.566406 195.78125 242.253906 196.039062 242.140625 196.347656 C 242.097656 196.460938 242.085938 197.09375 242.109375 198.277344 C 242.136719 199.917969 242.132812 200.046875 242.03125 200.136719 C 241.972656 200.191406 241.261719 200.664062 240.449219 201.191406 C 237.605469 203.035156 235.597656 204.363281 235.554688 204.425781 C 235.503906 204.507812 235.769531 204.96875 235.882812 204.992188 C 235.929688 205 236.277344 204.804688 236.65625 204.558594 C 237.964844 203.703125 238.863281 203.136719 238.902344 203.136719 C 238.925781 203.136719 238.941406 207.054688 238.941406 211.84375 L 238.941406 220.550781 L 255.03125 220.550781 C 267.855469 220.550781 271.121094 220.535156 271.128906 220.472656 C 271.132812 220.433594 271.140625 216.53125 271.144531 211.800781 C 271.148438 207.074219 271.167969 203.1875 271.1875 203.167969 C 271.210938 203.144531 271.878906 203.550781 272.675781 204.066406 C 273.472656 204.582031 274.160156 205.003906 274.207031 205.003906 C 274.292969 205 274.554688 204.628906 274.554688 204.5 C 274.554688 204.425781 273.300781 203.589844 268.621094 200.53125 C 267.824219 200.011719 266.902344 199.414062 266.570312 199.199219 C 266.238281 198.988281 264.898438 198.109375 263.589844 197.25 C 262.277344 196.386719 260.992188 195.546875 260.726562 195.382812 C 260.460938 195.214844 259.085938 194.316406 257.671875 193.382812 C 256.253906 192.449219 255.074219 191.6875 255.042969 191.6875 C 255.015625 191.6875 254.464844 192.03125 253.820312 192.457031 M 254.726562 192.792969 C 254.375 193.003906 252.605469 194.15625 250.03125 195.851562 C 248.9375 196.570312 247.84375 197.285156 246.746094 198 C 245.816406 198.601562 243.851562 199.878906 242.378906 200.835938 L 239.695312 202.582031 L 239.691406 203.523438 C 239.683594 204.332031 239.695312 204.460938 239.773438 204.433594 C 239.820312 204.414062 240.433594 204.023438 241.132812 203.566406 C 241.789062 203.140625 242.445312 202.714844 243.097656 202.289062 C 243.804688 201.832031 246.390625 200.140625 250.996094 197.128906 C 252.402344 196.210938 253.878906 195.246094 254.273438 194.988281 C 254.667969 194.730469 255.011719 194.519531 255.035156 194.519531 C 255.101562 194.519531 258.054688 196.433594 261.910156 198.972656 C 265.296875 201.199219 269.195312 203.730469 270.171875 204.332031 L 270.398438 204.472656 L 270.398438 202.613281 L 269.992188 202.339844 C 269.765625 202.1875 268.878906 201.605469 268.015625 201.042969 C 267.15625 200.480469 266.003906 199.726562 265.457031 199.371094 C 264.910156 199.011719 264.191406 198.542969 263.859375 198.324219 C 262.710938 197.578125 262.105469 197.183594 260.757812 196.296875 C 258.964844 195.117188 255.539062 192.886719 255.269531 192.726562 L 255.054688 192.59375 Z M 245.722656 194.605469 C 245.65625 194.648438 245.011719 195.070312 244.292969 195.542969 C 243.199219 196.261719 242.972656 196.433594 242.925781 196.589844 C 242.847656 196.84375 242.871094 199.554688 242.949219 199.535156 C 242.984375 199.527344 243.679688 199.082031 244.5 198.546875 L 245.992188 197.578125 L 245.992188 196.046875 C 245.992188 194.433594 245.992188 194.425781 245.722656 194.605469 M 254.238281 195.914062 C 253.828125 196.183594 252.65625 196.953125 251.625 197.621094 C 250.597656 198.289062 248.890625 199.40625 247.832031 200.101562 C 246.671875 200.859375 245.511719 201.617188 244.351562 202.375 L 242.800781 203.386719 L 242.785156 207.375 L 242.769531 211.359375 L 242.5 211.496094 C 241.96875 211.761719 242.019531 212.128906 242 207.777344 L 241.984375 203.925781 L 240.992188 204.558594 C 240.445312 204.902344 239.921875 205.242188 239.832031 205.308594 L 239.667969 205.425781 L 239.695312 211.375 C 239.707031 214.648438 239.722656 217.875 239.722656 218.546875 L 239.726562 219.765625 L 270.398438 219.765625 L 270.398438 205.378906 L 269.570312 204.839844 C 268.496094 204.144531 268.136719 203.917969 268.085938 203.917969 C 268.066406 203.917969 268.046875 205.628906 268.046875 207.714844 L 268.046875 211.511719 L 267.820312 211.511719 C 267.695312 211.511719 267.535156 211.492188 267.460938 211.472656 L 267.324219 211.4375 L 267.324219 207.566406 C 267.324219 205.433594 267.308594 203.613281 267.285156 203.519531 C 267.253906 203.371094 266.984375 203.171875 265.375 202.125 C 264.183594 201.347656 262.996094 200.570312 261.808594 199.792969 C 260.882812 199.183594 259.824219 198.492188 259.460938 198.253906 C 259.097656 198.019531 257.96875 197.285156 256.960938 196.625 C 255.949219 195.964844 255.089844 195.425781 255.050781 195.425781 C 255.011719 195.421875 254.648438 195.644531 254.238281 195.914062 M 252.363281 205.257812 C 252.316406 205.398438 252.003906 206.140625 251.671875 206.902344 C 251.203125 207.976562 250.738281 209.050781 250.273438 210.125 C 249.96875 210.824219 249.664062 211.523438 249.363281 212.222656 C 249.277344 212.421875 249.222656 212.476562 249.144531 212.453125 C 248.390625 212.238281 245.007812 212.1875 243.832031 212.375 C 241.902344 212.679688 240.875 213.34375 240.871094 214.289062 C 240.871094 214.375 240.929688 214.660156 240.996094 214.921875 C 241.066406 215.183594 241.1875 215.660156 241.265625 215.984375 C 241.441406 216.695312 241.640625 217.105469 241.972656 217.4375 C 242.417969 217.878906 243.335938 218.28125 244.304688 218.46875 C 245.390625 218.671875 246.519531 218.703125 253.523438 218.707031 C 260.558594 218.710938 261.394531 218.691406 263.375 218.46875 C 265.945312 218.175781 268.148438 217.339844 268.753906 216.425781 C 268.921875 216.175781 268.9375 216.105469 268.984375 215.324219 C 269.011719 214.867188 269.035156 214.203125 269.039062 213.851562 C 269.042969 213.246094 269.03125 213.199219 268.890625 213.046875 C 268.421875 212.546875 267.699219 212.457031 265.285156 212.601562 C 264.679688 212.636719 264.167969 212.65625 264.152344 212.636719 C 264.136719 212.621094 264.175781 212.070312 264.238281 211.410156 C 264.304688 210.753906 264.339844 210.199219 264.316406 210.175781 C 264.285156 210.140625 262.933594 209.921875 260.589844 209.570312 C 260.117188 209.5 259.714844 209.460938 259.691406 209.480469 C 259.667969 209.503906 259.578125 210.34375 259.484375 211.34375 C 259.390625 212.347656 259.316406 213.175781 259.3125 213.183594 C 259.3125 213.191406 258.871094 213.199219 258.332031 213.199219 C 257.40625 213.199219 256.347656 213.113281 256.199219 213.027344 C 256.132812 212.988281 256.257812 212.667969 257.632812 209.433594 C 258 208.570312 258.3125 207.835938 258.324219 207.800781 C 258.339844 207.761719 258.179688 207.65625 257.972656 207.5625 C 257.761719 207.46875 256.710938 206.972656 255.632812 206.460938 C 252.695312 205.0625 252.566406 205.003906 252.507812 205.003906 C 252.476562 205.003906 252.410156 205.117188 252.363281 205.257812 M 252.773438 206.105469 C 252.304688 207.21875 251.820312 208.347656 250.964844 210.296875 C 250.398438 211.59375 249.976562 212.628906 250.007812 212.65625 C 250.070312 212.714844 251.113281 213.039062 251.144531 213.007812 C 251.167969 212.984375 253.660156 207.167969 253.828125 206.742188 C 253.960938 206.40625 253.976562 206.425781 253.324219 206.128906 L 252.855469 205.910156 Z M 254.519531 206.945312 C 254.46875 207.054688 253.847656 208.5 253.136719 210.15625 C 252.042969 212.699219 251.855469 213.179688 251.929688 213.234375 C 252.078125 213.347656 252.984375 213.582031 253.035156 213.523438 C 253.0625 213.492188 253.28125 212.996094 253.523438 212.414062 C 253.765625 211.835938 254.351562 210.445312 254.828125 209.328125 C 255.304688 208.210938 255.695312 207.28125 255.695312 207.265625 C 255.695312 207.234375 255.382812 207.082031 254.804688 206.832031 C 254.609375 206.75 254.609375 206.75 254.519531 206.945312 M 255.015625 210.679688 C 254.035156 212.984375 253.722656 213.773438 253.78125 213.8125 C 253.84375 213.851562 254.246094 213.980469 254.792969 214.136719 C 254.882812 214.160156 254.914062 214.097656 256.269531 210.878906 C 256.492188 210.347656 256.847656 209.5 257.054688 208.992188 L 257.433594 208.070312 L 256.988281 207.867188 C 256.746094 207.757812 256.496094 207.648438 256.4375 207.632812 C 256.339844 207.601562 256.152344 208.007812 255.015625 210.679688 M 260.308594 210.320312 C 260.292969 210.363281 260.199219 211.304688 260.097656 212.414062 C 259.992188 213.523438 259.894531 214.550781 259.875 214.691406 L 259.839844 214.945312 L 260.472656 214.945312 C 260.824219 214.945312 261.125 214.917969 261.144531 214.886719 C 261.191406 214.8125 261.617188 210.484375 261.582031 210.449219 C 261.550781 210.417969 260.585938 210.246094 260.4375 210.246094 C 260.378906 210.246094 260.320312 210.28125 260.308594 210.320312 M 262.300781 210.804688 C 262.25 211.140625 261.902344 214.628906 261.902344 214.777344 C 261.902344 214.878906 261.933594 214.890625 262.15625 214.859375 C 262.296875 214.84375 262.59375 214.8125 262.808594 214.792969 L 263.207031 214.757812 L 263.308594 213.691406 C 263.367188 213.105469 263.453125 212.207031 263.5 211.699219 C 263.550781 211.1875 263.578125 210.757812 263.566406 210.746094 C 263.539062 210.71875 262.527344 210.546875 262.40625 210.546875 C 262.367188 210.546875 262.320312 210.664062 262.300781 210.804688 M 245.089844 212.933594 C 243.390625 213.046875 242.222656 213.394531 241.765625 213.910156 C 241.609375 214.089844 241.59375 214.128906 241.667969 214.203125 C 241.867188 214.398438 242.648438 214.46875 245.121094 214.5 C 246.445312 214.519531 247.730469 214.511719 247.980469 214.484375 L 248.429688 214.433594 L 248.699219 213.816406 C 248.867188 213.433594 248.945312 213.175781 248.910156 213.140625 C 248.785156 213.019531 246.03125 212.867188 245.089844 212.933594 M 264.566406 213.3125 C 264.097656 213.351562 264.011719 213.40625 264.011719 213.679688 C 264.007812 213.761719 263.992188 214.015625 263.96875 214.246094 L 263.929688 214.660156 L 264.195312 214.617188 C 265.574219 214.40625 267.648438 213.898438 268.070312 213.664062 C 268.636719 213.351562 268.269531 213.265625 266.449219 213.273438 C 265.65625 213.273438 264.804688 213.292969 264.566406 213.3125 M 249.539062 213.605469 C 249.472656 213.761719 249.320312 214.121094 249.203125 214.402344 C 249.085938 214.683594 248.84375 215.246094 248.667969 215.648438 C 248.488281 216.050781 248.34375 216.410156 248.34375 216.445312 C 248.34375 216.546875 249.574219 216.535156 249.65625 216.433594 C 249.730469 216.347656 250.886719 213.671875 250.859375 213.648438 C 250.828125 213.617188 249.8125 213.320312 249.738281 213.320312 C 249.699219 213.320312 249.609375 213.449219 249.539062 213.605469 M 255.84375 213.730469 C 255.75 213.824219 255.578125 214.3125 255.621094 214.355469 C 255.792969 214.527344 258.15625 214.945312 258.945312 214.945312 C 259.148438 214.945312 259.15625 214.925781 259.21875 214.296875 L 259.253906 213.921875 L 258.726562 213.921875 C 258.058594 213.917969 256.515625 213.816406 256.152344 213.746094 C 256.003906 213.71875 255.863281 213.710938 255.84375 213.730469 M 251.441406 214.171875 C 251.28125 214.488281 250.453125 216.378906 250.453125 216.425781 C 250.453125 216.441406 250.757812 216.449219 251.128906 216.4375 L 251.804688 216.421875 L 252.246094 215.402344 C 252.488281 214.839844 252.679688 214.339844 252.667969 214.289062 C 252.65625 214.234375 252.449219 214.136719 252.121094 214.035156 L 251.59375 213.875 Z M 268.015625 214.425781 C 267.53125 214.632812 265.226562 215.160156 264.273438 215.28125 C 264.105469 215.304688 263.9375 215.339844 263.90625 215.359375 C 263.871094 215.378906 263.832031 215.554688 263.816406 215.75 L 263.789062 216.101562 L 264.214844 216.0625 C 265.332031 215.960938 267.585938 215.507812 268.027344 215.296875 C 268.195312 215.214844 268.222656 215.144531 268.308594 214.570312 C 268.34375 214.320312 268.308594 214.300781 268.015625 214.425781 M 253.351562 214.570312 C 253.246094 214.769531 252.621094 216.332031 252.621094 216.394531 C 252.621094 216.433594 252.84375 216.449219 253.269531 216.4375 L 253.914062 216.421875 L 254.230469 215.714844 C 254.402344 215.328125 254.550781 214.964844 254.5625 214.90625 C 254.574219 214.824219 254.472656 214.769531 254.066406 214.636719 C 253.449219 214.4375 253.421875 214.4375 253.351562 214.570312 M 241.773438 215.078125 C 241.773438 215.125 241.832031 215.332031 241.902344 215.539062 C 242.046875 215.972656 242.105469 216.011719 242.875 216.234375 C 243.5625 216.433594 244.480469 216.511719 246.152344 216.511719 L 247.542969 216.511719 L 247.683594 216.195312 C 247.777344 215.976562 247.867188 215.753906 247.957031 215.535156 L 248.09375 215.1875 L 245.792969 215.183594 C 243.6875 215.183594 242.722656 215.144531 242.03125 215.03125 C 241.828125 215 241.773438 215.007812 241.773438 215.078125 M 255.195312 215.203125 C 255.152344 215.308594 255.023438 215.621094 254.910156 215.894531 C 254.800781 216.167969 254.71875 216.398438 254.734375 216.410156 C 254.792969 216.449219 258.875 216.378906 258.941406 216.335938 C 258.984375 216.308594 259.03125 216.136719 259.050781 215.949219 L 259.085938 215.609375 L 258.789062 215.609375 C 258.164062 215.609375 256.75 215.378906 255.769531 215.121094 C 255.53125 215.058594 255.320312 215.007812 255.304688 215.007812 C 255.289062 215.007812 255.238281 215.09375 255.195312 215.203125 M 262.382812 215.511719 L 261.808594 215.578125 L 261.792969 215.933594 L 261.773438 216.289062 L 262.054688 216.25 C 262.210938 216.230469 262.46875 216.210938 262.628906 216.210938 C 262.808594 216.210938 262.953125 216.175781 263.011719 216.117188 C 263.128906 216 263.144531 215.421875 263.03125 215.4375 C 262.988281 215.441406 262.699219 215.476562 262.382812 215.511719 M 260.15625 215.652344 C 259.972656 215.664062 259.804688 215.707031 259.777344 215.746094 C 259.753906 215.789062 259.734375 215.933594 259.734375 216.074219 L 259.730469 216.332031 L 260.300781 216.332031 C 260.609375 216.332031 260.910156 216.316406 260.960938 216.296875 C 261.03125 216.269531 261.058594 216.175781 261.058594 215.933594 L 261.058594 215.609375 L 260.769531 215.621094 C 260.613281 215.625 260.335938 215.640625 260.15625 215.652344 M 267.910156 216.0625 C 267.074219 216.367188 264.820312 216.726562 262.617188 216.902344 C 260.464844 217.078125 246.253906 217.289062 244.605469 217.171875 C 243.851562 217.117188 243.027344 216.988281 242.496094 216.835938 C 242.347656 216.796875 242.347656 216.796875 242.460938 216.925781 C 242.796875 217.300781 243.628906 217.644531 244.613281 217.808594 C 245.585938 217.96875 247.570312 218.015625 253.675781 218.015625 C 261.242188 218.019531 262.820312 217.953125 264.839844 217.539062 C 266.109375 217.28125 267.441406 216.726562 267.972656 216.238281 C 268.277344 215.957031 268.269531 215.929688 267.910156 216.0625 " fill-opacity="1" fill-rule="evenodd"/></g></g></svg>