<svg width="400" height="400" xmlns="http://www.w3.org/2000/svg">
  <defs>
    <pattern id="batik" x="0" y="0" width="200" height="200" patternUnits="userSpaceOnUse">
      <!-- Base color -->
      <rect width="200" height="200" fill="#4A3424"/>
      
      <!-- Batik-inspired organic shapes and curves -->
      <!-- Curved lines -->
      <path d="M0,50 Q50,30 100,50 T200,50" stroke="#5A4434" stroke-width="2" fill="none" opacity="0.3"/>
      <path d="M0,100 Q50,80 100,100 T200,100" stroke="#5A4434" stroke-width="2" fill="none" opacity="0.3"/>
      <path d="M0,150 Q50,130 100,150 T200,150" stroke="#5A4434" stroke-width="2" fill="none" opacity="0.3"/>
      
      <!-- Vertical curves -->
      <path d="M50,0 Q30,50 50,100 T50,200" stroke="#5A4434" stroke-width="2" fill="none" opacity="0.3"/>
      <path d="M100,0 Q80,50 100,100 T100,200" stroke="#5A4434" stroke-width="2" fill="none" opacity="0.3"/>
      <path d="M150,0 Q130,50 150,100 T150,200" stroke="#5A4434" stroke-width="2" fill="none" opacity="0.3"/>
      
      <!-- Decorative dots (traditional batik element) -->
      <circle cx="25" cy="25" r="2" fill="#6A5444" opacity="0.4"/>
      <circle cx="75" cy="75" r="2" fill="#6A5444" opacity="0.4"/>
      <circle cx="125" cy="125" r="2" fill="#6A5444" opacity="0.4"/>
      <circle cx="175" cy="175" r="2" fill="#6A5444" opacity="0.4"/>
      <circle cx="25" cy="175" r="2" fill="#6A5444" opacity="0.4"/>
      <circle cx="175" cy="25" r="2" fill="#6A5444" opacity="0.4"/>
      
      <!-- Small organic shapes -->
      <path d="M40,60 Q45,55 50,60 Q45,65 40,60" fill="#5A4434" opacity="0.2"/>
      <path d="M90,110 Q95,105 100,110 Q95,115 90,110" fill="#5A4434" opacity="0.2"/>
      <path d="M140,160 Q145,155 150,160 Q145,165 140,160" fill="#5A4434" opacity="0.2"/>
      
      <!-- Diagonal elements -->
      <line x1="0" y1="0" x2="200" y2="200" stroke="#5A4434" stroke-width="1" opacity="0.15"/>
      <line x1="0" y1="200" x2="200" y2="0" stroke="#5A4434" stroke-width="1" opacity="0.15"/>
      
      <!-- Additional curved decorative elements -->
      <path d="M60,20 Q80,40 60,60" stroke="#6A5444" stroke-width="1.5" fill="none" opacity="0.25"/>
      <path d="M110,70 Q130,90 110,110" stroke="#6A5444" stroke-width="1.5" fill="none" opacity="0.25"/>
      <path d="M160,120 Q180,140 160,160" stroke="#6A5444" stroke-width="1.5" fill="none" opacity="0.25"/>
    </pattern>
  </defs>
  <rect width="400" height="400" fill="url(#batik)"/>
</svg>
